<?xml version="1.0" encoding="UTF-8" standalone="no"?>
<!-- Created with Inkscape (http://www.inkscape.org/) -->

<svg
   width="297mm"
   height="210mm"
   viewBox="0 0 297 210"
   version="1.1"
   id="svg3073"
   xmlns="http://www.w3.org/2000/svg"
   xmlns:svg="http://www.w3.org/2000/svg">
  <defs
     id="defs3070">
    <clipPath
       clipPathUnits="userSpaceOnUse"
       id="clipPath2930">
      <path
         d="M -1.2401574e-6,0.00100689 H 1190.552 V 841.89 H -1.2401574e-6 Z"
         id="path2932"
         style="stroke-width:0.999998" />
    </clipPath>
    <clipPath
       clipPathUnits="userSpaceOnUse"
       id="clipPath316">
      <path
         d="M 766.058,555.735 H 1026.69 V 489.589 H 766.058 Z"
         id="path314" />
    </clipPath>
    <clipPath
       clipPathUnits="userSpaceOnUse"
       id="clipPath320">
      <path
         d="m 766.058,489.589 h 260.635 v 66.146 H 766.058 Z"
         id="path318" />
    </clipPath>
    <clipPath
       clipPathUnits="userSpaceOnUse"
       id="clipPath2926">
      <path
         d="M -1.2401574e-6,0.00100689 H 1190.552 V 841.89 H -1.2401574e-6 Z"
         id="path2928"
         style="stroke-width:0.999998" />
    </clipPath>
    <clipPath
       clipPathUnits="userSpaceOnUse"
       id="clipPath338">
      <path
         d="M 732.324,663.238 H 907.276 V 597.092 H 732.324 Z"
         id="path336" />
    </clipPath>
    <clipPath
       clipPathUnits="userSpaceOnUse"
       id="clipPath342">
      <path
         d="m 732.324,597.092 h 174.951 v 66.146 H 732.324 Z"
         id="path340" />
    </clipPath>
    <clipPath
       clipPathUnits="userSpaceOnUse"
       id="clipPath2922">
      <path
         d="M -1.2401574e-6,0.00100689 H 1190.552 V 841.89 H -1.2401574e-6 Z"
         id="path2924"
         style="stroke-width:0.999998" />
    </clipPath>
    <clipPath
       clipPathUnits="userSpaceOnUse"
       id="clipPath360">
      <path
         d="M 672.527,609.487 H 984.669 V 543.34 H 672.527 Z"
         id="path358" />
    </clipPath>
    <clipPath
       clipPathUnits="userSpaceOnUse"
       id="clipPath364">
      <path
         d="m 672.527,543.34 h 312.142 v 66.147 H 672.527 Z"
         id="path362" />
    </clipPath>
    <clipPath
       clipPathUnits="userSpaceOnUse"
       id="clipPath2918">
      <path
         d="m -794.83829,-629.99279 h 1190.552 V 211.8962 h -1190.552 z"
         id="path2920"
         style="stroke-width:0.999998" />
    </clipPath>
    <clipPath
       clipPathUnits="userSpaceOnUse"
       id="clipPath2914">
      <path
         d="m -729.78989,-577.10519 h 1190.552 V 264.7838 h -1190.552 z"
         id="path2916"
         style="stroke-width:0.999998" />
    </clipPath>
    <clipPath
       clipPathUnits="userSpaceOnUse"
       id="clipPath2910">
      <path
         d="M -770.0566,-570.62219 H 420.4954 V 271.2668 h -1190.552 z"
         id="path2912"
         style="stroke-width:0.999998" />
    </clipPath>
    <clipPath
       clipPathUnits="userSpaceOnUse"
       id="clipPath2906">
      <path
         d="M -1.2401574e-6,0.00100689 H 1190.552 V 841.89 H -1.2401574e-6 Z"
         id="path2908"
         style="stroke-width:0.999998" />
    </clipPath>
    <clipPath
       clipPathUnits="userSpaceOnUse"
       id="clipPath2902">
      <path
         d="m -785.59301,-515.87161 h 1190.552 v 841.889 h -1190.552 z"
         id="path2904"
         style="stroke-width:0.999998" />
    </clipPath>
    <clipPath
       clipPathUnits="userSpaceOnUse"
       id="clipPath2898">
      <path
         d="M -871.67309,-515.87161 H 318.8789 v 841.889 H -871.67309 Z"
         id="path2900"
         style="stroke-width:0.999998" />
    </clipPath>
    <clipPath
       clipPathUnits="userSpaceOnUse"
       id="clipPath2894">
      <path
         d="M -908.2282,-522.3547 H 282.32379 v 841.889 H -908.2282 Z"
         id="path2896"
         style="stroke-width:0.999998" />
    </clipPath>
  </defs>
  <g
     id="layer1">
    <g
       id="g310"
       transform="matrix(0.35277777,0,0,-0.35277777,-151.00531,308.55645)"
       clip-path="url(#clipPath2930)">
      <g
         id="g312" />
      <g
         id="g330">
        <g
           clip-path="url(#clipPath316)"
           id="g328">
          <g
             id="g326">
            <g
               clip-path="url(#clipPath320)"
               id="g324">
              <path
                 d="M 1026.693,489.589 H 766.058 v 66.146 h 260.635 z"
                 style="fill:#000000;fill-opacity:1;fill-rule:nonzero;stroke:none"
                 id="path322" />
            </g>
          </g>
        </g>
      </g>
    </g>
    <g
       id="g332"
       transform="matrix(0.35277777,0,0,-0.35277777,-151.00531,308.55645)"
       clip-path="url(#clipPath2926)">
      <g
         id="g334" />
      <g
         id="g352">
        <g
           clip-path="url(#clipPath338)"
           id="g350">
          <g
             id="g348">
            <g
               clip-path="url(#clipPath342)"
               id="g346">
              <path
                 d="M 907.276,597.092 H 732.325 v 66.146 h 174.951 z"
                 style="fill:#000000;fill-opacity:1;fill-rule:nonzero;stroke:none"
                 id="path344" />
            </g>
          </g>
        </g>
      </g>
    </g>
    <g
       id="g354"
       transform="matrix(0.35277777,0,0,-0.35277777,-151.00531,308.55645)"
       clip-path="url(#clipPath2922)">
      <g
         id="g356" />
      <g
         id="g374">
        <g
           clip-path="url(#clipPath360)"
           id="g372">
          <g
             id="g370">
            <g
               clip-path="url(#clipPath364)"
               id="g368">
              <path
                 d="M 984.669,543.34 H 672.527 v 66.146 h 312.142 z"
                 style="fill:#000000;fill-opacity:1;fill-rule:nonzero;stroke:none"
                 id="path366" />
            </g>
          </g>
        </g>
      </g>
    </g>
    <g
       id="g376"
       transform="matrix(0.35277777,0,0,-0.35277777,118.58425,92.192938)">
      <path
         d="m 0,0 c 4.079,0 7.53,1.464 10.302,4.391 2.77,2.929 4.182,6.589 4.182,10.93 0,4.339 -1.412,7.999 -4.182,10.928 C 7.53,29.176 4.079,30.64 0,30.64 c -4.079,0 -7.53,-1.464 -10.3,-4.391 -2.772,-2.929 -4.184,-6.589 -4.184,-10.928 0,-4.341 1.412,-8.001 4.184,-10.93 C -7.53,1.464 -4.079,0 0,0 m 0,34.249 c 5.281,0 9.621,-1.83 13.124,-5.439 3.504,-3.608 5.281,-8.104 5.281,-13.489 0,-5.387 -1.777,-9.936 -5.281,-13.543 C 9.621,-1.83 5.281,-3.609 0,-3.609 c -5.281,0 -9.674,1.779 -13.177,5.387 -3.503,3.607 -5.228,8.156 -5.228,13.543 0,5.385 1.725,9.881 5.228,13.489 3.503,3.609 7.896,5.439 13.177,5.439"
         style="fill:#c6c6c6;fill-opacity:1;fill-rule:nonzero;stroke:none"
         id="path378" />
    </g>
    <g
       id="g380"
       transform="matrix(0.35277777,0,0,-0.35277777,129.39597,86.30864)"
       clip-path="url(#clipPath2918)">
      <path
         d="m 0,0 h 11.242 c 5.176,0 8.158,2.457 8.158,6.692 0,4.341 -2.982,6.746 -8.158,6.746 H 0 Z m -3.87,-19.66 v 36.602 h 15.374 c 7.32,0 11.713,-4.079 11.713,-10.144 0,-6.224 -4.393,-10.303 -11.713,-10.303 H 0 V -19.66 Z"
         style="fill:#c6c6c6;fill-opacity:1;fill-rule:nonzero;stroke:none"
         id="path382" />
    </g>
    <g
       id="g384"
       transform="matrix(0.35277777,0,0,-0.35277777,140.11481,93.244392)">
      <path
         d="M 0,0 V 36.601 H 25.099 V 33.098 H 3.869 V 21.385 H 21.282 V 17.883 H 3.869 V 3.503 H 25.883 V 0 Z"
         style="fill:#c6c6c6;fill-opacity:1;fill-rule:nonzero;stroke:none"
         id="path386" />
    </g>
    <g
       id="g388"
       transform="matrix(0.35277777,0,0,-0.35277777,151.73767,93.244392)">
      <path
         d="M 0,0 V 36.601 H 3.346 L 26.458,6.692 v 29.909 h 3.765 V 0 H 26.929 L 3.765,30.014 V 0 Z"
         style="fill:#c6c6c6;fill-opacity:1;fill-rule:nonzero;stroke:none"
         id="path390" />
    </g>
    <g
       id="g392"
       transform="matrix(0.35277777,0,0,-0.35277777,93.238723,110.77646)">
      <path
         d="m 0,0 h 12.915 c 5.439,0 8.576,2.615 8.576,7.162 0,4.445 -3.137,7.06 -8.576,7.06 H 0 Z m 0,17.62 h 11.347 c 4.653,0 7.32,2.092 7.32,5.909 0,3.922 -2.667,6.066 -7.32,6.066 H 0 Z M -3.869,-3.505 v 36.603 h 15.844 c 6.483,0 10.509,-3.398 10.509,-8.89 0,-3.816 -1.83,-6.64 -4.81,-7.737 4.81,-0.785 7.948,-4.393 7.948,-9.779 0,-6.118 -4.549,-10.197 -12.027,-10.197 z"
         style="fill:#ffffff;fill-opacity:1;fill-rule:nonzero;stroke:none"
         id="path394" />
    </g>
    <g
       id="g396"
       transform="matrix(0.35277777,0,0,-0.35277777,106.44834,104.96621)"
       clip-path="url(#clipPath2914)">
      <path
         d="m 0,0 h 12.287 c 5.021,0 7.896,2.353 7.896,6.537 0,4.182 -2.927,6.587 -7.896,6.587 L 0,13.124 Z m -3.87,-19.974 v 36.603 h 16.367 c 7.164,0 11.555,-3.923 11.555,-9.937 0,-5.176 -3.189,-8.941 -8.627,-9.829 l 11.818,-16.837 h -4.55 L 11.19,-3.503 H 0 v -16.471 z"
         style="fill:#ffffff;fill-opacity:1;fill-rule:nonzero;stroke:none"
         id="path398" />
    </g>
    <g
       id="g400"
       transform="matrix(0.35277777,0,0,-0.35277777,120.65354,107.25327)"
       clip-path="url(#clipPath2910)">
      <path
         d="M 0,0 H 16.629 L 8.314,18.458 Z M -9.777,-13.491 6.537,23.32 h 3.608 L 26.511,-13.491 H 22.432 L 17.883,-3.398 H -1.307 L -5.75,-13.491 Z"
         style="fill:#ffffff;fill-opacity:1;fill-rule:nonzero;stroke:none"
         id="path402" />
    </g>
    <g
       id="g404"
       transform="matrix(0.35277777,0,0,-0.35277777,132.18486,112.01256)">
      <path
         d="M 0,0 V 36.603 H 3.346 L 26.458,6.692 v 29.911 h 3.765 V 0 H 26.929 L 3.765,30.014 V 0 Z"
         style="fill:#ffffff;fill-opacity:1;fill-rule:nonzero;stroke:none"
         id="path406" />
    </g>
    <g
       id="g408"
       transform="matrix(0.35277777,0,0,-0.35277777,147.66319,110.77646)">
      <path
         d="M 0,0 H 7.633 C 12.704,0 16.68,1.359 19.607,4.026 22.536,6.692 24,10.3 24,14.798 c 0,4.497 -1.464,8.103 -4.393,10.771 -2.927,2.667 -6.903,4.026 -11.974,4.026 L 0,29.595 Z M -3.87,-3.505 V 33.098 H 8.104 c 5.909,0 10.666,-1.673 14.326,-5.073 3.661,-3.398 5.492,-7.79 5.492,-13.227 0,-5.44 -1.831,-9.831 -5.492,-13.231 C 18.77,-1.83 14.013,-3.505 8.104,-3.505 Z"
         style="fill:#ffffff;fill-opacity:1;fill-rule:nonzero;stroke:none"
         id="path410" />
    </g>
    <path
       d="m 883.174,593.735 h 3.869 v -36.603 h -3.869 z"
       style="fill:#ffffff;fill-opacity:1;fill-rule:nonzero;stroke:none"
       id="path412"
       transform="matrix(0.35277777,0,0,-0.35277777,-151.00531,308.55645)"
       clip-path="url(#clipPath2906)" />
    <g
       id="g414"
       transform="matrix(0.35277777,0,0,-0.35277777,165.46662,112.01256)">
      <path
         d="M 0,0 V 36.603 H 3.346 L 26.458,6.692 v 29.911 h 3.765 V 0 H 26.929 L 3.765,30.014 V 0 Z"
         style="fill:#ffffff;fill-opacity:1;fill-rule:nonzero;stroke:none"
         id="path416" />
    </g>
    <g
       id="g418"
       transform="matrix(0.35277777,0,0,-0.35277777,180.92654,110.35256)">
      <path
         d="m 0,0 c -3.557,3.557 -5.333,8.105 -5.333,13.595 0,5.491 1.776,9.988 5.333,13.542 3.608,3.609 8.051,5.387 13.438,5.387 4.601,0 8.47,-1.15 11.607,-3.503 V 25.099 C 21.648,27.662 17.883,28.916 13.646,28.916 9.36,28.916 5.75,27.452 2.875,24.576 0,21.701 -1.412,17.988 -1.412,13.543 -1.412,9.099 0,5.439 2.823,2.563 c 2.875,-2.877 6.38,-4.288 10.511,-4.288 4.391,0 7.843,1.255 10.405,3.817 v 14.222 h 3.817 V 0.576 C 24.419,-2.928 19.241,-5.333 13.334,-5.333 8.051,-5.333 3.608,-3.556 0,0"
         style="fill:#ffffff;fill-opacity:1;fill-rule:nonzero;stroke:none"
         id="path420" />
    </g>
    <g
       id="g422"
       transform="matrix(0.35277777,0,0,-0.35277777,126.13444,126.56806)"
       clip-path="url(#clipPath2902)">
      <path
         d="M 0,0 H 16.628 L 8.313,18.458 Z M -9.778,-13.491 6.537,23.32 h 3.606 l 16.368,-36.811 h -4.079 l -4.549,10.093 h -19.19 l -4.445,-10.093 z"
         style="fill:#bc966a;fill-opacity:1;fill-rule:nonzero;stroke:none"
         id="path424" />
    </g>
    <g
       id="g426"
       transform="matrix(0.35277777,0,0,-0.35277777,139.73109,131.40094)">
      <path
         d="m 0,0 -12.654,36.811 h 4.287 L 1.83,6.327 11.294,36.968 h 3.137 L 23.948,6.327 34.092,36.811 h 4.182 L 25.673,0 H 22.275 L 12.863,30.222 3.398,0 Z"
         style="fill:#bc966a;fill-opacity:1;fill-rule:nonzero;stroke:none"
         id="path428" />
    </g>
    <g
       id="g430"
       transform="matrix(0.35277777,0,0,-0.35277777,156.50158,126.56806)"
       clip-path="url(#clipPath2898)">
      <path
         d="M 0,0 H 16.628 L 8.313,18.458 Z M -9.778,-13.491 6.537,23.32 h 3.606 l 16.368,-36.811 h -4.079 l -4.549,10.093 h -19.19 l -4.445,-10.093 z"
         style="fill:#bc966a;fill-opacity:1;fill-rule:nonzero;stroke:none"
         id="path432" />
    </g>
    <g
       id="g434"
       transform="matrix(0.35277777,0,0,-0.35277777,169.39741,124.28097)"
       clip-path="url(#clipPath2894)">
      <path
         d="m 0,0 h 12.287 c 5.021,0 7.896,2.353 7.896,6.537 0,4.182 -2.927,6.587 -7.896,6.587 L 0,13.124 Z m -3.87,-19.974 v 36.603 h 16.367 c 7.163,0 11.556,-3.923 11.556,-9.937 0,-5.176 -3.19,-8.941 -8.628,-9.829 l 11.818,-16.837 h -4.55 L 11.19,-3.503 H 0 v -16.471 z"
         style="fill:#bc966a;fill-opacity:1;fill-rule:nonzero;stroke:none"
         id="path436" />
    </g>
    <g
       id="g438"
       transform="matrix(0.35277777,0,0,-0.35277777,182.79139,130.09126)">
      <path
         d="M 0,0 H 7.633 C 12.706,0 16.68,1.359 19.607,4.026 22.536,6.692 24,10.3 24,14.798 c 0,4.497 -1.464,8.103 -4.393,10.771 -2.927,2.667 -6.901,4.026 -11.974,4.026 L 0,29.595 Z M -3.87,-3.505 V 33.098 H 8.104 c 5.909,0 10.666,-1.673 14.326,-5.073 3.662,-3.398 5.492,-7.79 5.492,-13.227 0,-5.44 -1.83,-9.831 -5.492,-13.231 C 18.77,-1.83 14.013,-3.505 8.104,-3.505 Z"
         style="fill:#bc966a;fill-opacity:1;fill-rule:nonzero;stroke:none"
         id="path440" />
    </g>
    <g
       id="g442"
       transform="matrix(0.35277777,0,0,-0.35277777,194.6545,130.18383)">
      <path
         d="M 0,0 V 4.34 C 1.411,3.138 3.294,2.039 5.699,1.097 c 2.458,-0.888 4.969,-1.359 7.584,-1.359 5.698,0 9.881,2.668 9.881,6.902 0.261,2.301 -1.463,4.028 -3.033,4.968 -0.419,0.314 -1.15,0.679 -2.195,1.046 l -2.301,0.784 c -0.522,0.157 -1.464,0.471 -2.771,0.838 -1.622,0.471 -2.929,0.837 -3.871,1.149 -0.94,0.314 -2.038,0.733 -3.241,1.307 -1.202,0.576 -2.092,1.204 -2.718,1.83 -1.256,1.309 -2.302,3.399 -2.302,5.962 0,2.771 1.098,5.02 3.347,6.797 2.248,1.777 5.333,2.667 9.307,2.667 4.341,0 8.156,-0.993 11.399,-3.032 v -3.974 c -3.608,2.248 -7.373,3.398 -11.294,3.398 -5.857,0 -8.837,-2.614 -8.837,-5.96 -0.263,-1.83 1.203,-3.243 2.352,-4.131 0.316,-0.263 0.89,-0.523 1.727,-0.837 l 1.778,-0.68 2.247,-0.628 2.197,-0.627 c 1.516,-0.471 2.719,-0.837 3.607,-1.151 0.89,-0.313 1.987,-0.784 3.191,-1.411 1.202,-0.627 2.143,-1.307 2.823,-1.988 1.411,-1.306 2.561,-3.607 2.561,-6.275 0,-3.294 -1.305,-5.855 -3.973,-7.737 C 20.549,-2.928 17.36,-3.868 13.543,-3.868 8.104,-3.868 2.98,-2.249 0,0"
         style="fill:#bc966a;fill-opacity:1;fill-rule:nonzero;stroke:none"
         id="path444" />
    </g>
  </g>
</svg>
